<?xml version="1.0" encoding="utf-8"?>
<!-- Generator: Adobe Illustrator 25.4.1, SVG Export Plug-In . SVG Version: 6.00 Build 0)  -->
<svg version="1.1" id="logo" xmlns="http://www.w3.org/2000/svg" xmlns:xlink="http://www.w3.org/1999/xlink" x="0px" y="0px"
	 viewBox="0 0 192 192" style="enable-background:new 0 0 192 192;" xml:space="preserve">
<style type="text/css">
	.st0{fill:#4285F4;}
	.st1{opacity:0.2;}
	.st2{opacity:0.2;fill:#FFFFFF;}
	.st3{fill:#FFFFFF;}
</style>
<circle id="_x35_" class="st0" cx="96" cy="96" r="88"/>
<path id="_x34_" class="st1" d="M96,182c-48.4329224,0-87.7223511-38.6834106-87.9936523-86.5028687
	C8.0054321,95.6650391,8,95.8318481,8,96c0,48.6010132,39.3989258,88,88,88s88-39.3989868,88-88
	c0-0.1681519-0.0054321-0.3349609-0.0063477-0.5028687C183.7223511,143.3165894,144.4329224,182,96,182z"/>
<path id="_x33_" class="st2" d="M96,10c48.4329224,0,87.7223511,38.6834106,87.9936523,86.5028687
	C183.9945679,96.3349609,184,96.1681519,184,96c0-48.6010742-39.3989258-88-88-88S8,47.3989258,8,96
	c0,0.1681519,0.0054321,0.3349609,0.0063477,0.5028687C8.2776489,48.6834106,47.5670776,10,96,10z"/>
<path id="_x32_" class="st1" d="M82.4727402,106.1166382l-33.8181534-9.4690781
	c-2.2412758,2.2412796-2.2412758,5.8750839,0.0000038,8.1163559l21.6436195,21.6436157l8.1163559,8.1163483
	c2.2412796,2.2412872,5.8750763,2.2412872,8.1163559,0l8.1163559-8.1163559l48.6981201-48.698143
	c2.2412872-2.2412796,2.2412872-5.8750763,0-8.1163559L82.4727402,106.1166382z"/>
<path id="_x31_" class="st3" d="M127.1126938,59.4766731l-44.6399536,44.6399651l-17.5854416-17.585434
	c-2.2412796-2.2412796-5.8750801-2.2412796-8.1163559,0l-8.1163559,8.1163559c-2.2412758,2.2412796-2.2412758,5.8750839,0,8.1163559
	l21.6436234,21.6436157l8.1163559,8.1163483c2.2412796,2.2412872,5.8750763,2.2412872,8.1163559,0l8.1163559-8.1163559
	l48.6981201-48.698143c2.2412872-2.2412796,2.2412872-5.8750763,0-8.1163559l-8.1163483-8.1163521
	C132.9877625,57.2353935,129.3539734,57.2353935,127.1126938,59.4766731z"/>
</svg>
